:SAMPLES-PER-SECOND 30
:FRAME-RANGE 1-1700
:FULLY-SPECIFIED
:DEGREES
319
root  8.34724 40.6988 28.8609 -10.344 5.75354 1.73856
RightUpLeg  -3.83271 0.0884087 1.65874
RightLeg  43.5957 -1.59226 -1.92561
RightFoot  -9.71356 -0.0830682 1.21149
RightToes  6.35937e-011 1.2921e-014 -6.02303e-014
Spine  18.0185 1.70164 -0.511877
Spine1  -2.33059 -0.0828807 2.57314
HEad  18.2236 16.7999 -8.44973
LeftShoulder1  2.94134 -11.1284 -13.6577
LeftArm  21.5282 -40.7491 -84.3925
LeftForeArm  72.6331 5.42212 -14.4171
LeftHand  -0.228426 12.4687 -2.51747
RightShoulder  3.43763 8.70686 22.5008
RightArm  -12.9062 36.7522 71.6667
RightForeArm  100.438 -3.88518 3.04344
RightHand  0.67285 -10.2247 -16.6438
LeftUpLeg  -96.414 8.58955 -56.2536
LeftLeg  107.672 -2.05738 4.92073
LeftFoot  -30.9167 -0.984886 -6.78276
LeftToes  -1.9349e-011 5.45182e-011 1.33515e-010
320
root  8.43197 40.5361 29.6837 -9.35715 5.07066 1.06685
RightUpLeg  -5.3518 5.21593 1.92863
RightLeg  33.1176 -4.23247 -3.2149
RightFoot  -16.8205 -0.0639324 1.04302
RightToes  6.35937e-011 1.2921e-014 -6.02303e-014
Spine  20.0647 1.69485 0.830641
Spine1  -3.50794 0.270386 2.63018
HEad  17.4609 15.9896 -8.61821
LeftShoulder1  2.97084 -11.3291 -13.5709
LeftArm  19.7814 -40.9565 -84.2201
LeftForeArm  71.0987 5.81534 -14.0987
LeftHand  -0.201226 12.546 -2.06072
RightShoulder  3.43144 8.92099 21.9136
RightArm  -11.8256 38.4125 71.5343
RightForeArm  101.265 -3.90219 3.37932
RightHand  0.654636 -10.2025 -16.3033
LeftUpLeg  -96.7541 8.66786 -55.8186
LeftLeg  105.093 -1.55666 4.11749
LeftFoot  -31.0482 -1.06127 -7.17974
LeftToes  -1.9349e-011 5.45182e-011 1.33515e-010
321
root  8.47914 39.8421 30.5404 -8.81021 3.62802 0.537537
RightUpLeg  -7.70762 9.57369 1.33079
RightLeg  25.6962 0.267867 -0.0837111
RightFoot  -21.3486 0.0925729 2.70894
RightToes  6.35937e-011 1.2921e-014 -6.02303e-014
Spine  21.771 1.71089 1.78404
Spine1  -3.48439 0.650635 2.37037
HEad  14.9261 16.3368 -9.51472
LeftShoulder1  2.89844 -11.1618 -13.2788
LeftArm  16.8615 -41.6427 -83.4685
LeftForeArm  69.9272 5.94235 -13.5207
LeftHand  -0.222253 12.6142 -2.35964
RightShoulder  3.41377 9.33569 20.7803
RightArm  -10.6956 40.1525 73.238
RightForeArm  101.787 -3.85218 3.22682
RightHand  0.615417 -10.0537 -15.8721
LeftUpLeg  -97.9302 9.44898 -55.1287
LeftLeg  104.062 -1.59236 4.52615
LeftFoot  -30.9592 -1.04868 -7.13716
LeftToes  -1.9349e-011 5.45182e-011 1.33515e-010
322
root  8.46688 38.7404 31.5881 -9.21346 2.09135 -0.420731
RightUpLeg  -9.37054 13.8768 1.58068
RightLeg  23.2952 4.73441 2.01494
RightFoot  -21.534 0.369721 5.77969
RightToes  6.35937e-011 1.2921e-014 -6.02303e-014
Spine  22.9287 1.75429 2.87852
Spine1  -3.12258 1.01916 2.0276
HEad  13.9654 17.7758 -9.90473
LeftShoulder1  2.80133 -10.9478 -12.8598
LeftArm  16.8643 -42.1293 -83.1326
LeftForeArm  70.2284 5.71511 -13.4719
LeftHand  -0.23816 12.7424 -2.5489
RightShoulder  3.50996 9.76925 20.6101
RightArm  -9.68063 41.1 74.2141
RightForeArm  101.927 -3.87604 3.40966
RightHand  0.669468 -10.3664 -16.1266
LeftUpLeg  -98.791 11.0361 -53.4349
LeftLeg  104.625 -1.99913 5.71366
LeftFoot  -31.2686 -0.981187 -6.65216
LeftToes  -1.9349e-011 5.45182e-011 1.33515e-010
323
root  8.34873 37.3488 32.7362 -10.3931 0.749771 -1.05746
RightUpLeg  -13.7303 12.2906 3.37204
RightLeg  35.7833 4.18785 2.98034
RightFoot  -15.5197 0.118333 6.12561
RightToes  6.35937e-011 1.2921e-014 -6.02303e-014
Spine  22.8028 2.51612 2.94875
Spine1  -1.1543 1.49265 2.69254
HEad  12.1657 19.8733 -11.5963
LeftShoulder1  2.62371 -10.3556 -12.3668
LeftArm  15.8925 -43.0362 -84.3405
LeftForeArm  73.5959 6.02116 -12.9036
LeftHand  -0.275508 12.8132 -3.07892
RightShoulder  3.496 10.1795 19.6207
RightArm  -9.69139 41.723 75.5221
RightForeArm  102.23 -3.75088 2.7454
RightHand  0.618943 -10.0529 -15.9571
LeftUpLeg  -99.4628 13.1329 -52.1925
LeftLeg  106.453 -3.05711 8.23419
LeftFoot  -31.2783 -0.669298 -4.87845
LeftToes  -1.9349e-011 5.45182e-011 1.33515e-010
324
root  8.29321 35.9678 33.8901 -12.4716 1.18716 -2.04019
RightUpLeg  -15.8049 8.81137 5.27235
RightLeg  47.6892 3.79433 4.12707
RightFoot  -18.5851 -0.188661 -0.994543
RightToes  6.35937e-011 1.2921e-014 -6.02303e-014
Spine  23.415 1.83261 3.63386
Spine1  1.2528 1.23801 1.52663
HEad  8.91996 22.9338 -12.1628
LeftShoulder1  2.53997 -10.5779 -11.3568
LeftArm  19.1052 -44.0187 -84.7831
LeftForeArm  74.2948 5.76327 -13.4631
LeftHand  -0.290649 12.6563 -3.39006
RightShoulder  3.52583 10.4654 19.2742
RightArm  -8.52076 41.8961 76.1159
RightForeArm  101.325 -3.91588 3.47853
RightHand  0.634181 -10.1179 -16.1037
LeftUpLeg  -97.8652 14.4775 -51.4683
LeftLeg  108.331 -4.71914 11.7655
LeftFoot  -31.1202 -0.48735 -3.87022
LeftToes  -1.9349e-011 5.45182e-011 1.33515e-010
325
root  8.20444 34.9932 35.3652 -13.1543 5.26485 -2.10071
RightUpLeg  -15.6247 5.95079 5.28782
RightLeg  54.8353 2.42454 3.29083
RightFoot  -24.9997 -0.409633 -2.00612
RightToes  6.35937e-011 1.2921e-014 -6.02303e-014
Spine  21.9065 1.30324 1.96029
Spine1  2.49487 0.103396 2.22969
HEad  6.20265 25.7912 -13.3407
LeftShoulder1  2.66031 -10.7869 -12.0019
LeftArm  23.021 -44.2412 -86.1158
LeftForeArm  74.9085 5.55733 -14.1395
LeftHand  -0.351135 12.6581 -4.31475
RightShoulder  3.43828 9.95412 19.6261
RightArm  -7.93708 40.2428 74.626
RightForeArm  99.4382 -4.26857 5.07525
RightHand  0.561857 -9.71858 -15.6678
LeftUpLeg  -94.4906 12.7504 -52.4129
LeftLeg  110.517 -6.19657 13.9238
LeftFoot  -30.8994 -0.328697 -2.98706
LeftToes  -1.9349e-011 5.45182e-011 1.33515e-010
326
root  8.16891 34.6429 36.8365 -13.3978 8.5826 -3.10344
RightUpLeg  -13.5723 3.32319 6.49355
RightLeg  56.9281 1.325 1.75246
RightFoot  -28.7641 -0.572034 -2.45868
RightToes  6.35937e-011 1.2921e-014 -6.02303e-014
Spine  20.9552 1.25199 2.04402
Spine1  2.18867 -0.0729943 2.13737
HEad  1.45364 28.5725 -15.9882
LeftShoulder1  2.91916 -11.2956 -13.2323
LeftArm  26.1734 -43.1685 -87.1479
LeftForeArm  77.9733 4.91331 -14.5812
LeftHand  -0.394608 12.9946 -4.73378
RightShoulder  3.23315 9.18337 19.578
RightArm  -8.00228 37.7009 73.2349
RightForeArm  97.2673 -4.5677 6.28348
RightHand  0.520388 -9.37469 -15.7908
LeftUpLeg  -92.6059 11.303 -52.2909
LeftLeg  112.815 -6.80827 13.7652
LeftFoot  -30.7817 -0.302748 -2.84985
LeftToes  -1.9349e-011 5.45182e-011 1.33515e-010
327
root  8.22203 34.9321 38.2455 -12.4966 10.6299 -3.34476
RightUpLeg  -10.9463 1.67803 6.76684
RightLeg  55.0164 0.97358 1.08333
RightFoot  -30.1732 -0.65726 -2.72664
RightToes  6.35937e-011 1.2921e-014 -6.02303e-014
Spine  19.824 1.40078 2.37077
Spine1  1.31539 0.377917 0.705607
HEad  -3.86216 31.2364 -20.2417
LeftShoulder1  3.01333 -11.2355 -14.0368
LeftArm  31.339 -42.4178 -87.4624
LeftForeArm  76.1194 3.89875 -15.3564
LeftHand  -0.417142 12.8859 -5.14496
RightShoulder  3.19798 9.01783 19.6446
RightArm  -9.21657 35.2458 72.7292
RightForeArm  95.9277 -4.62738 6.26514
RightHand  0.496786 -9.16379 -15.9292
LeftUpLeg  -92.945 10.4516 -52.7935
LeftLeg  114.123 -6.74157 12.869
LeftFoot  -30.9425 -0.295322 -2.78879
LeftToes  -1.9349e-011 5.45182e-011 1.33515e-010
328
root  8.37226 35.8075 39.6698 -10.9339 12.3125 -2.73203
RightUpLeg  -7.3886 -0.48931 5.67415
RightLeg  49.7811 1.42454 1.4539
RightFoot  -29.1575 -0.663868 -2.97176
RightToes  6.35937e-011 1.2921e-014 -6.02303e-014
Spine  18.1675 2.00017 2.01532
Spine1  0.0737749 1.07773 -0.518055
HEad  -6.2717 32.6567 -24.0394
LeftShoulder1  3.04321 -11.0185 -14.6121
LeftArm  36.2394 -41.8926 -87.6521
LeftForeArm  72.6508 2.72206 -16.0236
LeftHand  -0.425831 12.8021 -5.33985
RightShoulder  3.24147 9.09337 19.8526
RightArm  -10.4639 33.6153 72.4772
RightForeArm  95.783 -4.56888 5.8639
RightHand  0.456937 -8.85375 -16.0004
LeftUpLeg  -94.5789 9.97541 -54.1802
LeftLeg  114.508 -6.82915 12.8238
LeftFoot  -31.0105 -0.379847 -3.26868
LeftToes  -1.9349e-011 5.45182e-011 1.33515e-010
329
root  8.61304 37.0545 41.1205 -9.93111 13.1954 -2.06184
RightUpLeg  -3.24252 -0.727267 4.81892
RightLeg  43.9688 1.92887 1.68857
RightFoot  -24.6298 -0.321389 -1.32673
RightToes  6.35937e-011 1.2921e-014 -6.02303e-014
Spine  16.7918 2.6071 2.19835
Spine1  -1.07239 1.93798 -2.40574
HEad  -5.70315 33.8863 -24.904
LeftShoulder1  2.9498 -10.5529 -14.6576
LeftArm  39.3116 -41.4178 -86.937
LeftForeArm  69.0361 1.99704 -16.381
LeftHand  -0.434388 12.7317 -5.52601
RightShoulder  3.30027 9.09566 20.3578
RightArm  -11.1856 32.3036 72.7743
RightForeArm  95.4591 -4.54791 5.64265
RightHand  0.494174 -9.05802 -16.277
LeftUpLeg  -97.3256 10.2335 -55.3344
LeftLeg  115.042 -6.73592 12.3629
LeftFoot  -31.0828 -0.399008 -3.36908
LeftToes  -1.9349e-011 5.45182e-011 1.33515e-010
330
root  8.97012 38.4409 42.5261 -9.29855 14.1372 -1.26894
RightUpLeg  -0.399673 -0.0232696 3.76304
RightLeg  40.433 2.64177 2.12986
RightFoot  -16.9568 -0.0267297 1.79567
RightToes  6.35937e-011 1.2921e-014 -6.02303e-014
Spine  15.1393 2.65789 1.80014
Spine1  -1.51415 2.07312 -3.56028
HEad  -3.0609 36.3608 -23.9525
LeftShoulder1  2.7739 -9.88998 -14.3707
LeftArm  35.1629 -40.7868 -84.8411
LeftForeArm  69.309 2.91579 -16.0666
LeftHand  -0.445456 12.8284 -5.6121
RightShoulder  3.43458 9.1739 21.3336
RightArm  -11.588 32.3194 73.7496
RightForeArm  96.9014 -4.3842 5.05436
RightHand  0.579191 -9.5621 -16.6652
LeftUpLeg  -99.7315 10.4444 -56.3083
LeftLeg  115.166 -5.74776 10.4562
LeftFoot  -31.587 -0.493353 -3.82894
LeftToes  -1.9349e-011 5.45182e-011 1.33515e-010
331
root  9.37486 39.7018 43.8146 -9.73235 16.5177 -0.734421
RightUpLeg  0.431866 0.327829 3.00873
RightLeg  41.2801 2.37638 1.94742
RightFoot  -6.8346 -0.24118 4.94379
RightToes  6.35937e-011 1.2921e-014 -6.02303e-014
Spine  14.8916 2.37877 0.214214
Spine1  -2.23829 1.36385 -2.21827
HEad  2.22931 38.5574 -21.6341
LeftShoulder1  2.71679 -9.96319 -13.7694
LeftArm  33.0043 -40.6786 -83.8002
LeftForeArm  67.2796 3.29755 -15.9902
LeftHand  -0.415919 12.6742 -5.29238
RightShoulder  3.50538 9.11829 22.0739
RightArm  -12.4116 32.8002 74.122
RightForeArm  98.5911 -4.14903 4.10814
RightHand  0.616317 -9.90215 -16.39
LeftUpLeg  -99.9036 10.2909 -57.0513
LeftLeg  114.468 -4.55344 8.45001
LeftFoot  -31.6523 -0.646568 -4.67302
LeftToes  -1.9349e-011 5.45182e-011 1.33515e-010
